<svg width="100" height="100" viewBox="0 0 100 100" fill="none" xmlns="http://www.w3.org/2000/svg">
<rect width="100" height="100" rx="20" fill="black"/>
<path d="M52.6 79.12C48.1733 79.12 44.0667 78.4267 40.28 77.04C36.4933 75.6 33.2133 73.5733 30.44 70.96C27.72 68.3467 25.5867 65.28 24.04 61.76C22.4933 58.1867 21.72 54.2667 21.72 50C21.72 45.7333 22.4933 41.84 24.04 38.32C25.5867 34.7467 27.7467 31.6533 30.52 29.04C33.2933 26.4267 36.5733 24.4267 40.36 23.04C44.2 21.6 48.3867 20.88 52.92 20.88C58.2 20.88 62.92 21.76 67.08 23.52C71.24 25.28 74.68 27.8133 77.4 31.12L67.32 40.24C65.4 38.16 63.32 36.6133 61.08 35.6C58.8933 34.5333 56.44 34 53.72 34C51.32 34 49.1333 34.3733 47.16 35.12C45.1867 35.8667 43.5067 36.96 42.12 38.4C40.7333 39.7867 39.64 41.4667 38.84 43.44C38.0933 45.36 37.72 47.5467 37.72 50C37.72 52.3467 38.0933 54.5067 38.84 56.48C39.64 58.4533 40.7333 60.16 42.12 61.6C43.5067 62.9867 45.16 64.08 47.08 64.88C49.0533 65.6267 51.2133 66 53.56 66C55.9067 66 58.2 65.6267 60.44 64.88C62.68 64.08 64.9467 62.7467 67.24 60.88L76.12 72C72.92 74.2933 69.2133 76.0533 65 77.28C60.7867 78.5067 56.6533 79.12 52.6 79.12ZM62.12 69.92V48.8H76.12V72L62.12 69.92Z" fill="white"/>
</svg>
